<mxfile host="app.diagrams.net" modified="2022-11-17T07:22:39.785Z" agent="5.0 (Macintosh; Intel Mac OS X 10_15_7) AppleWebKit/537.36 (KHTML, like Gecko) Chrome/107.0.0.0 Safari/537.36" etag="VBmpczmVIDFR327-8L1N" version="20.5.3" type="github">
  <diagram id="c1kNA7XQLXP5zN5EKZID" name="第 1 页">
    <mxGraphModel dx="1426" dy="769" grid="1" gridSize="10" guides="1" tooltips="1" connect="1" arrows="1" fold="1" page="1" pageScale="1" pageWidth="827" pageHeight="1169" math="0" shadow="0">
      <root>
        <mxCell id="0" />
        <mxCell id="1" parent="0" />
        <mxCell id="uPUDUOIw21ojX7zJ4cMf-27" value="算力机管理概览图" style="shape=umlFrame;whiteSpace=wrap;html=1;width=120;height=30;boundedLbl=1;verticalAlign=middle;align=left;spacingLeft=5;" vertex="1" parent="1">
          <mxGeometry x="40" y="40" width="360" height="220" as="geometry" />
        </mxCell>
        <mxCell id="uPUDUOIw21ojX7zJ4cMf-6" value="Assets" style="childLayout=tableLayout;recursiveResize=0;shadow=1;" vertex="1" parent="1">
          <mxGeometry x="60" y="80" width="320" height="160" as="geometry" />
        </mxCell>
        <mxCell id="uPUDUOIw21ojX7zJ4cMf-7" style="shape=tableRow;horizontal=0;startSize=0;swimlaneHead=0;swimlaneBody=0;top=0;left=0;bottom=0;right=0;dropTarget=0;collapsible=0;recursiveResize=0;expand=0;fontStyle=0;" vertex="1" parent="uPUDUOIw21ojX7zJ4cMf-6">
          <mxGeometry width="320" height="33" as="geometry" />
        </mxCell>
        <mxCell id="uPUDUOIw21ojX7zJ4cMf-8" value="状态" style="connectable=0;recursiveResize=0;align=center;fontStyle=1;html=1;" vertex="1" parent="uPUDUOIw21ojX7zJ4cMf-7">
          <mxGeometry width="106" height="33" as="geometry">
            <mxRectangle width="106" height="33" as="alternateBounds" />
          </mxGeometry>
        </mxCell>
        <mxCell id="uPUDUOIw21ojX7zJ4cMf-9" value="服务器名" style="connectable=0;recursiveResize=0;align=center;fontStyle=1;html=1;" vertex="1" parent="uPUDUOIw21ojX7zJ4cMf-7">
          <mxGeometry x="106" width="108" height="33" as="geometry">
            <mxRectangle width="108" height="33" as="alternateBounds" />
          </mxGeometry>
        </mxCell>
        <mxCell id="uPUDUOIw21ojX7zJ4cMf-10" value="最后登陆时间" style="connectable=0;recursiveResize=0;align=center;fontStyle=1;html=1;" vertex="1" parent="uPUDUOIw21ojX7zJ4cMf-7">
          <mxGeometry x="214" width="106" height="33" as="geometry">
            <mxRectangle width="106" height="33" as="alternateBounds" />
          </mxGeometry>
        </mxCell>
        <mxCell id="uPUDUOIw21ojX7zJ4cMf-11" value="" style="shape=tableRow;horizontal=0;startSize=0;swimlaneHead=0;swimlaneBody=0;top=0;left=0;bottom=0;right=0;dropTarget=0;collapsible=0;recursiveResize=0;expand=0;fontStyle=0;" vertex="1" parent="uPUDUOIw21ojX7zJ4cMf-6">
          <mxGeometry y="33" width="320" height="32" as="geometry" />
        </mxCell>
        <mxCell id="uPUDUOIw21ojX7zJ4cMf-12" value="Value 1" style="connectable=0;recursiveResize=0;align=center;whiteSpace=wrap;html=1;" vertex="1" parent="uPUDUOIw21ojX7zJ4cMf-11">
          <mxGeometry width="106" height="32" as="geometry">
            <mxRectangle width="106" height="32" as="alternateBounds" />
          </mxGeometry>
        </mxCell>
        <mxCell id="uPUDUOIw21ojX7zJ4cMf-13" value="Value 2" style="connectable=0;recursiveResize=0;align=center;whiteSpace=wrap;html=1;" vertex="1" parent="uPUDUOIw21ojX7zJ4cMf-11">
          <mxGeometry x="106" width="108" height="32" as="geometry">
            <mxRectangle width="108" height="32" as="alternateBounds" />
          </mxGeometry>
        </mxCell>
        <mxCell id="uPUDUOIw21ojX7zJ4cMf-14" value="Value 3" style="connectable=0;recursiveResize=0;align=center;whiteSpace=wrap;html=1;" vertex="1" parent="uPUDUOIw21ojX7zJ4cMf-11">
          <mxGeometry x="214" width="106" height="32" as="geometry">
            <mxRectangle width="106" height="32" as="alternateBounds" />
          </mxGeometry>
        </mxCell>
        <mxCell id="uPUDUOIw21ojX7zJ4cMf-15" value="" style="shape=tableRow;horizontal=0;startSize=0;swimlaneHead=0;swimlaneBody=0;top=0;left=0;bottom=0;right=0;dropTarget=0;collapsible=0;recursiveResize=0;expand=0;fontStyle=1;" vertex="1" parent="uPUDUOIw21ojX7zJ4cMf-6">
          <mxGeometry y="65" width="320" height="31" as="geometry" />
        </mxCell>
        <mxCell id="uPUDUOIw21ojX7zJ4cMf-16" value="Value 4" style="connectable=0;recursiveResize=0;whiteSpace=wrap;html=1;" vertex="1" parent="uPUDUOIw21ojX7zJ4cMf-15">
          <mxGeometry width="106" height="31" as="geometry">
            <mxRectangle width="106" height="31" as="alternateBounds" />
          </mxGeometry>
        </mxCell>
        <mxCell id="uPUDUOIw21ojX7zJ4cMf-17" value="Value 5" style="connectable=0;recursiveResize=0;whiteSpace=wrap;html=1;" vertex="1" parent="uPUDUOIw21ojX7zJ4cMf-15">
          <mxGeometry x="106" width="108" height="31" as="geometry">
            <mxRectangle width="108" height="31" as="alternateBounds" />
          </mxGeometry>
        </mxCell>
        <mxCell id="uPUDUOIw21ojX7zJ4cMf-18" value="Value 6" style="connectable=0;recursiveResize=0;whiteSpace=wrap;html=1;" vertex="1" parent="uPUDUOIw21ojX7zJ4cMf-15">
          <mxGeometry x="214" width="106" height="31" as="geometry">
            <mxRectangle width="106" height="31" as="alternateBounds" />
          </mxGeometry>
        </mxCell>
        <mxCell id="uPUDUOIw21ojX7zJ4cMf-19" value="" style="shape=tableRow;horizontal=0;startSize=0;swimlaneHead=0;swimlaneBody=0;top=0;left=0;bottom=0;right=0;dropTarget=0;collapsible=0;recursiveResize=0;expand=0;fontStyle=0;" vertex="1" parent="uPUDUOIw21ojX7zJ4cMf-6">
          <mxGeometry y="96" width="320" height="33" as="geometry" />
        </mxCell>
        <mxCell id="uPUDUOIw21ojX7zJ4cMf-20" value="Value 7" style="connectable=0;recursiveResize=0;fontStyle=0;align=center;whiteSpace=wrap;html=1;" vertex="1" parent="uPUDUOIw21ojX7zJ4cMf-19">
          <mxGeometry width="106" height="33" as="geometry">
            <mxRectangle width="106" height="33" as="alternateBounds" />
          </mxGeometry>
        </mxCell>
        <mxCell id="uPUDUOIw21ojX7zJ4cMf-21" value="Value 8" style="connectable=0;recursiveResize=0;fontStyle=0;align=center;whiteSpace=wrap;html=1;" vertex="1" parent="uPUDUOIw21ojX7zJ4cMf-19">
          <mxGeometry x="106" width="108" height="33" as="geometry">
            <mxRectangle width="108" height="33" as="alternateBounds" />
          </mxGeometry>
        </mxCell>
        <mxCell id="uPUDUOIw21ojX7zJ4cMf-22" value="Value 9" style="connectable=0;recursiveResize=0;fontStyle=0;align=center;whiteSpace=wrap;html=1;" vertex="1" parent="uPUDUOIw21ojX7zJ4cMf-19">
          <mxGeometry x="214" width="106" height="33" as="geometry">
            <mxRectangle width="106" height="33" as="alternateBounds" />
          </mxGeometry>
        </mxCell>
        <mxCell id="uPUDUOIw21ojX7zJ4cMf-23" value="" style="shape=tableRow;horizontal=0;startSize=0;swimlaneHead=0;swimlaneBody=0;top=0;left=0;bottom=0;right=0;dropTarget=0;collapsible=0;recursiveResize=0;expand=0;fontStyle=1;" vertex="1" parent="uPUDUOIw21ojX7zJ4cMf-6">
          <mxGeometry y="129" width="320" height="31" as="geometry" />
        </mxCell>
        <mxCell id="uPUDUOIw21ojX7zJ4cMf-24" value="Value 10" style="connectable=0;recursiveResize=0;whiteSpace=wrap;html=1;" vertex="1" parent="uPUDUOIw21ojX7zJ4cMf-23">
          <mxGeometry width="106" height="31" as="geometry">
            <mxRectangle width="106" height="31" as="alternateBounds" />
          </mxGeometry>
        </mxCell>
        <mxCell id="uPUDUOIw21ojX7zJ4cMf-25" value="Value 11" style="connectable=0;recursiveResize=0;whiteSpace=wrap;html=1;" vertex="1" parent="uPUDUOIw21ojX7zJ4cMf-23">
          <mxGeometry x="106" width="108" height="31" as="geometry">
            <mxRectangle width="108" height="31" as="alternateBounds" />
          </mxGeometry>
        </mxCell>
        <mxCell id="uPUDUOIw21ojX7zJ4cMf-26" value="Value 12" style="connectable=0;recursiveResize=0;whiteSpace=wrap;html=1;" vertex="1" parent="uPUDUOIw21ojX7zJ4cMf-23">
          <mxGeometry x="214" width="106" height="31" as="geometry">
            <mxRectangle width="106" height="31" as="alternateBounds" />
          </mxGeometry>
        </mxCell>
      </root>
    </mxGraphModel>
  </diagram>
</mxfile>
